<svg width="30" height="33" viewBox="0 0 30 33" fill="none" xmlns="http://www.w3.org/2000/svg">
<path fill-rule="evenodd" clip-rule="evenodd" d="M15.9763 0.226644C15.4604 -0.0755479 14.8243 -0.0755479 14.3084 0.226644C10.6438 2.37299 8.17219 6.38884 8.17219 10.9912C8.17219 11.6471 8.22243 12.2912 8.31913 12.9196C5.79646 12.0521 3.06501 12.3678 0.834002 13.6695C0.317569 13.9707 -0.000506057 14.5285 6.04393e-07 15.132C0.00264248 18.3158 1.63612 21.4187 4.56158 23.1288C5.99677 23.968 7.56326 24.3666 9.10843 24.3674C8.87334 25.0416 8.74545 25.7675 8.74545 26.5234C8.74545 30.1005 11.6093 33 15.1421 33C18.675 33 21.5388 30.1005 21.5388 26.5234C21.5388 25.7656 21.4103 25.0387 21.1743 24.363C22.6273 24.3164 24.0909 23.917 25.4386 23.1288C28.3642 21.4187 29.9975 18.3159 30 15.1321C30.0007 14.5287 29.6826 13.9709 29.1662 13.6696C27.023 12.4192 24.418 12.0787 21.9803 12.8227C22.0675 12.225 22.1124 11.6135 22.1124 10.9912C22.1124 6.38884 19.6409 2.37299 15.9763 0.226644ZM11.5033 10.9912C11.5033 8.00254 12.9325 5.35031 15.1423 3.69941C17.3522 5.35031 18.7814 8.00254 18.7814 10.9912C18.7814 13.9798 17.3522 16.632 15.1423 18.2829C12.9325 16.632 11.5033 13.9798 11.5033 10.9912ZM21.711 16.5919C23.2491 15.6928 25.0264 15.5882 26.5789 16.1571C26.2894 17.8029 25.3112 19.3088 23.7731 20.2081C22.235 21.1073 20.4578 21.2117 18.9052 20.643C19.1947 18.997 20.1729 17.491 21.711 16.5919ZM3.4213 16.157C4.97379 15.588 6.75101 15.6926 8.28913 16.5918C9.82728 17.4909 10.8054 18.997 11.095 20.6426C9.54246 21.2117 7.76524 21.1073 6.22712 20.2081C4.68901 19.3088 3.7109 17.8028 3.4213 16.157ZM12.0765 26.5234C12.0765 24.8093 13.449 23.4194 15.1421 23.4194C16.8352 23.4194 18.2078 24.8093 18.2078 26.5234C18.2078 28.2376 16.8352 29.6274 15.1421 29.6274C13.449 29.6274 12.0765 28.2376 12.0765 26.5234Z" fill="#22B24B"/>
</svg>
